:SAMPLES-PER-SECOND 30
:FULLY-SPECIFIED
:DEGREES
681
root  -44.5364 37.1857 -0.160205 -32.0863 -77.4588 21.1935
RightUpLeg  -20.7573 -22.2634 -10.6613
RightLeg  15.6028 -1.64992 0.045691
RightFoot  3.40669 -1.39848 10.9525
RightToes  2.91037e-010 0 -3.6325e-017
Spine  38.9194 -1.56834 3.86979
Spine1  14.7293 1.35719 -4.54175
HEad  -29.0041 -2.48009 -6.71527
LeftShoulder1  1.90131 -2.29516 -26.6597
LeftArm  -5.13719 -0.121668 -44.1812
LeftForeArm  8.03366 -24.2988 -4.74083
LeftHand  -0.240378 0.750826 5.9831
RightShoulder  0.267741 -2.65479 26.4351
RightArm  11.5064 2.39849 47.4116
RightForeArm  -14.9623 6.82908 7.6885
RightHand  -0.811262 7.35873 -7.75859
LeftUpLeg  -11.6032 1.71427 -5.24559
LeftLeg  41.4619 -1.32085 -0.854611
LeftFoot  -17.7266 0.341053 4.19387
LeftToes  -7.53974e-010 3.3384e-011 -1.25048e-011
682
root  -43.5092 37.5638 -0.10501 -30.7791 -78.2786 19.3513
RightUpLeg  -20.8349 -20.5964 -10.3891
RightLeg  24.7272 -0.556143 -0.650554
RightFoot  2.59373 -0.980196 8.16812
RightToes  2.91037e-010 0 -3.6325e-017
Spine  37.9933 -1.51959 3.97862
Spine1  14.3004 1.5209 -5.04481
HEad  -26.9766 -1.07131 -7.60797
LeftShoulder1  1.82614 -2.12028 -26.3337
LeftArm  -6.54699 1.28847 -44.4052
LeftForeArm  7.15234 -25.1437 -5.011
LeftHand  -0.21859 0.948538 5.66647
RightShoulder  0.159571 -2.99592 26.9953
RightArm  10.3603 3.51734 47.3204
RightForeArm  -16.3572 7.65656 7.30558
RightHand  -1.07715 7.994 -9.55055
LeftUpLeg  -11.2964 1.56784 -4.98558
LeftLeg  38.2832 -0.84913 -0.333769
LeftFoot  -14.5079 0.206345 4.30709
LeftToes  -7.53974e-010 3.3384e-011 -1.25048e-011
683
root  -42.5719 37.9916 -0.128772 -29.7967 -79.2619 17.9533
RightUpLeg  -19.5766 -17.938 -10.4454
RightLeg  33.2777 -2.43187 -1.97054
RightFoot  0.885738 -0.851415 7.99247
RightToes  2.91037e-010 0 -3.6325e-017
Spine  36.7313 -1.27851 3.6648
Spine1  14.1397 1.65374 -5.35683
HEad  -25.3058 0.674517 -8.35489
LeftShoulder1  1.69377 -1.71712 -26.2975
LeftArm  -6.37844 2.71276 -44.3525
LeftForeArm  6.41902 -25.1808 -5.05835
LeftHand  -0.181012 1.64181 5.4507
RightShoulder  0.150254 -3.02075 26.7863
RightArm  10.1615 4.38273 47.9295
RightForeArm  -20.2494 9.69253 7.21927
RightHand  -1.62875 9.64342 -12.9383
LeftUpLeg  -10.4927 1.94974 -4.4159
LeftLeg  34.2821 -0.824692 -0.225988
LeftFoot  -11.1948 0.0627199 4.23563
LeftToes  -7.53974e-010 3.3384e-011 -1.25048e-011
684
root  -41.6741 38.4054 -0.179019 -29.5751 -80.3373 17.6936
RightUpLeg  -18.0156 -15.872 -10.266
RightLeg  41.1208 -3.35173 -3.39274
RightFoot  -0.824042 -0.666517 7.15767
RightToes  2.91037e-010 0 -3.6325e-017
Spine  35.3253 -0.973205 3.22218
Spine1  13.3538 1.77544 -5.70958
HEad  -22.7246 2.75607 -9.189
LeftShoulder1  1.58539 -1.36172 -26.453
LeftArm  -4.40696 4.78748 -43.653
LeftForeArm  5.884 -24.6483 -4.96849
LeftHand  -0.16977 1.1049 4.49312
RightShoulder  0.115108 -3.12452 26.5054
RightArm  12.4401 4.71283 48.3503
RightForeArm  -21.2163 13.3428 7.02224
RightHand  -1.43578 9.4629 -11.5493
LeftUpLeg  -9.71831 2.90403 -3.84388
LeftLeg  29.8028 -1.24955 -0.418595
LeftFoot  -7.89555 -0.0698224 3.90997
LeftToes  -7.53974e-010 3.3384e-011 -1.25048e-011
685
root  -40.7808 38.6966 -0.243027 -29.3297 -80.7932 17.5378
RightUpLeg  -15.7425 -14.3411 -10.4405
RightLeg  47.867 -2.91896 -3.76759
RightFoot  -2.04646 -0.487932 5.84151
RightToes  2.91037e-010 0 -3.6325e-017
Spine  33.4246 -0.809476 2.69131
Spine1  13.0273 1.61033 -5.76896
HEad  -20.378 4.72557 -9.83279
LeftShoulder1  1.49104 -0.985229 -27.0806
LeftArm  -2.85399 7.24194 -42.8222
LeftForeArm  6.55541 -24.1121 -4.81556
LeftHand  -0.184013 1.43469 5.23665
RightShoulder  0.0798216 -3.22755 25.9532
RightArm  15.4614 4.97067 48.7765
RightForeArm  -21.746 18.0273 6.26336
RightHand  -1.32997 8.71302 -11.2719
LeftUpLeg  -9.3157 3.56186 -3.67827
LeftLeg  25.8461 -1.52589 -0.450102
LeftFoot  -4.68091 -0.187156 3.69132
LeftToes  -7.53974e-010 3.3384e-011 -1.25048e-011
686
root  -39.9114 38.8462 -0.322584 -29.8594 -81.3354 17.9705
RightUpLeg  -12.4261 -12.4463 -10.6304
RightLeg  52.9237 -1.97405 -3.18553
RightFoot  -3.18541 -0.420001 5.57049
RightToes  2.91037e-010 0 -3.6325e-017
Spine  31.4727 -0.767674 2.36314
Spine1  13.075 1.56704 -6.39437
HEad  -17.575 6.71357 -9.90234
LeftShoulder1  1.36999 -0.626269 -27.0616
LeftArm  -1.48977 10.0405 -42.1252
LeftForeArm  7.38156 -23.6566 -4.6746
LeftHand  -0.154002 1.80645 4.83317
RightShoulder  -0.0258459 -3.55638 26.3135
RightArm  17.1267 5.66859 48.6425
RightForeArm  -20.1259 22.9566 5.94159
RightHand  -1.31429 8.8553 -11.0419
LeftUpLeg  -9.09506 4.55271 -3.49615
LeftLeg  22.7124 -2.00785 -0.582689
LeftFoot  -1.94959 -0.298761 3.76886
LeftToes  -7.53974e-010 3.3384e-011 -1.25048e-011
687
root  -39.0204 38.8646 -0.41609 -31.4931 -81.8589 19.2823
RightUpLeg  -8.14121 -10.2616 -10.7483
RightLeg  56.0044 -1.03021 -2.07177
RightFoot  -4.28442 -0.351417 5.25171
RightToes  2.91037e-010 0 -3.6325e-017
Spine  29.6752 -0.509306 1.99531
Spine1  13.4432 1.60562 -6.47778
HEad  -15.3412 8.28821 -9.95377
LeftShoulder1  1.22955 -0.103554 -27.9617
LeftArm  -0.646772 12.7144 -41.1485
LeftForeArm  8.07453 -23.3844 -4.59452
LeftHand  -0.145821 2.49332 4.54489
RightShoulder  -0.0396032 -3.59838 26.1656
RightArm  15.5527 5.99036 48.2842
RightForeArm  -15.9455 28.053 6.84541
RightHand  -1.27525 9.11149 -10.5495
LeftUpLeg  -9.16809 5.18124 -3.44356
LeftLeg  20.5164 -2.07174 -0.570811
LeftFoot  0.398938 -0.395811 3.83287
LeftToes  -7.53974e-010 3.3384e-011 -1.25048e-011
688
root  -38.1024 38.7578 -0.546606 -34.4439 -82.1329 21.9099
RightUpLeg  -3.25893 -8.29406 -10.8821
RightLeg  56.988 -0.0603023 -0.54435
RightFoot  -5.22753 -0.357509 6.01146
RightToes  2.91037e-010 0 -3.6325e-017
Spine  27.7217 -0.0885588 1.63547
Spine1  14.5419 1.81844 -6.33922
HEad  -13.0043 8.97179 -9.68326
LeftShoulder1  1.11752 0.251004 -28.2576
LeftArm  0.645242 14.7566 -40.7911
LeftForeArm  7.52594 -22.8152 -4.57906
LeftHand  -0.0279447 5.13787 1.51173
RightShoulder  -0.12646 -3.86575 26.2724
RightArm  13.2452 6.65279 47.7772
RightForeArm  -11.9611 33.2689 8.03562
RightHand  -1.27973 8.31161 -11.1602
LeftUpLeg  -9.73183 5.54996 -3.55641
LeftLeg  19.2869 -1.98232 -0.619001
LeftFoot  1.94456 -0.388985 3.24135
LeftToes  -7.53974e-010 3.3384e-011 -1.25048e-011
689
root  -37.1372 38.5721 -0.683857 -38.0524 -82.3475 25.248
RightUpLeg  1.92013 -6.32552 -10.7522
RightLeg  55.6371 1.1484 1.37641
RightFoot  -4.58619 -0.425361 6.51296
RightToes  2.91037e-010 0 -3.6325e-017
Spine  26.1369 0.386251 1.73994
Spine1  14.9426 2.23415 -6.17666
HEad  -10.6769 9.68833 -9.9646
LeftShoulder1  1.08625 0.429942 -29.2423
LeftArm  1.97552 16.5283 -39.9371
LeftForeArm  6.56873 -22.0085 -4.64799
LeftHand  -0.0872661 2.59765 3.22533
RightShoulder  -0.114866 -3.83363 25.906
RightArm  10.9309 6.57291 47.4578
RightForeArm  -8.89652 37.8719 9.2343
RightHand  -1.28827 8.23515 -11.2924
LeftUpLeg  -10.6557 5.64633 -3.772
LeftLeg  18.4608 -1.55534 -0.544457
LeftFoot  3.36566 -0.347717 2.53066
LeftToes  -7.53974e-010 3.3384e-011 -1.25048e-011
690
root  -36.1075 38.343 -0.826203 -43.0786 -82.48 29.9951
RightUpLeg  7.35995 -4.74461 -10.7389
RightLeg  52.113 2.57879 3.18199
RightFoot  -5.63307 -0.473073 9.41315
RightToes  2.91037e-010 0 -3.6325e-017
Spine  24.4598 0.594635 2.31142
Spine1  16.0109 2.86036 -7.02418
HEad  -8.57718 9.98301 -9.51736
LeftShoulder1  1.0176 0.617828 -29.1787
LeftArm  2.16395 18.0255 -40.008
LeftForeArm  6.68686 -21.3909 -4.7264
LeftHand  -0.0649654 3.51014 2.98452
RightShoulder  -0.18397 -4.04001 26.4476
RightArm  8.96884 7.17982 47.2424
RightForeArm  -5.94791 41.5329 10.2877
RightHand  -1.32837 8.68379 -11.2738
LeftUpLeg  -11.6613 5.78315 -4.10525
LeftLeg  17.5824 -1.17169 -0.546358
LeftFoot  4.77752 -0.296094 1.88954
LeftToes  -7.53974e-010 3.3384e-011 -1.25048e-011
691
root  -34.9883 38.1075 -0.962937 -50.9661 -82.6827 37.5894
RightUpLeg  12.647 -3.29114 -10.9033
RightLeg  46.6908 3.65806 3.83949
RightFoot  -12.2946 0.0320645 14.3493
RightToes  2.91037e-010 0 -3.6325e-017
Spine  23.2231 0.943282 3.00973
Spine1  16.8284 3.64725 -7.69837
HEad  -6.31057 9.6832 -9.08252
LeftShoulder1  0.908412 0.964829 -29.6846
LeftArm  2.86227 18.9599 -39.7975
LeftForeArm  6.80369 -20.96 -4.81957
LeftHand  -0.0694173 3.34458 2.92478
RightShoulder  -0.214742 -4.13461 26.4184
RightArm  7.69523 7.79402 47.4145
RightForeArm  -3.57615 44.0927 11.0859
RightHand  -1.19164 8.14252 -10.5508
LeftUpLeg  -12.3745 6.04711 -4.42388
LeftLeg  16.0281 -0.238481 -0.609416
LeftFoot  5.767 -0.0600541 0.172099
LeftToes  -7.53974e-010 3.3384e-011 -1.25048e-011
692
root  -33.7556 37.9381 -1.08571 -59.3009 -83.2039 45.9981
RightUpLeg  16.2614 -1.65471 -10.3266
RightLeg  39.8356 4.279 3.55097
RightFoot  -18.91 0.824045 14.816
RightToes  2.91037e-010 0 -3.6325e-017
Spine  22.2767 1.11556 4.50764
Spine1  17.2594 4.50383 -8.36064
HEad  -4.9493 9.49756 -9.29517
LeftShoulder1  0.874533 1.07806 -29.9693
LeftArm  1.93328 19.8285 -40.4291
LeftForeArm  8.01633 -20.7719 -4.78351
LeftHand  -0.0393454 4.00649 1.74947
RightShoulder  -0.202589 -4.10361 26.0617
RightArm  6.85309 8.85996 47.7844
RightForeArm  -2.31585 45.303 11.4846
RightHand  -1.23334 7.84332 -11.1327
LeftUpLeg  -12.9194 5.61236 -4.15245
LeftLeg  13.3558 2.06734 -0.586414
LeftFoot  6.48927 0.301081 -2.17369
LeftToes  -7.53974e-010 3.3384e-011 -1.25048e-011
693
root  -32.3707 37.8337 -1.21446 -65.8391 -84.329 52.7518
RightUpLeg  17.3311 -0.79632 -9.00887
RightLeg  33.6745 4.23018 2.79334
RightFoot  -25.0577 1.11341 10.6033
RightToes  2.91037e-010 0 -3.6325e-017
Spine  22.3868 0.734025 7.21539
Spine1  16.7133 5.21297 -9.63365
HEad  -4.07397 9.52945 -9.91925
LeftShoulder1  0.80407 1.2841 -30.1346
LeftArm  1.72989 19.9952 -41.0337
LeftForeArm  9.24764 -20.0934 -4.89428
LeftHand  -0.0458813 3.07672 1.5207
RightShoulder  -0.172331 -4.01828 25.5831
RightArm  6.97938 10.0489 48.4128
RightForeArm  -2.08126 45.4411 11.5263
RightHand  -1.32143 7.8283 -11.9094
LeftUpLeg  -13.2394 5.29256 -2.78512
LeftLeg  9.76968 4.60362 -1.0602
LeftFoot  6.28762 0.653846 -4.47407
LeftToes  -7.53974e-010 3.3384e-011 -1.25048e-011
